<svg xmlns="http://www.w3.org/2000/svg" width="29" height="32" viewBox="0 0 29 32"><path fill="#FFF" fill-rule="evenodd" d="M180.924379,3508.98144 C180.982996,3508.95854 181.021251,3508.9031 181.021251,3508.84163 L181.021251,3507.45224 C181.021251,3507.26211 181.143112,3507.09247 181.326059,3507.02738 L184.001146,3506.07732 C184.202294,3506.00591 184.414857,3506.15145 184.414857,3506.36056 L184.414857,3508.79281 L184.414857,3509.24479 L184.414857,3510.71252 C184.414857,3510.90024 184.296389,3511.06807 184.116837,3511.13497 L173.836678,3514.95992 C173.432839,3515.11027 173,3514.8189 173,3514.39675 L173,3483.60312 C173,3483.18127 173.432839,3482.8899 173.836678,3483.03995 L184.116837,3486.8649 C184.296389,3486.93179 184.414857,3487.09993 184.414857,3487.28735 L184.414857,3488.75508 L184.414857,3490.28126 L184.414857,3491.63961 C184.414857,3491.84872 184.202294,3491.99426 184.001146,3491.92255 L181.326059,3490.97249 C181.143112,3490.9077 181.021251,3490.73776 181.021251,3490.54793 L181.021251,3489.10129 C181.021251,3489.03922 180.98207,3488.98348 180.922836,3488.96088 L176.603701,3487.32803 C176.50251,3487.28976 176.393606,3487.36268 176.393606,3487.46844 L176.393606,3510.52901 C176.393606,3510.63538 176.504053,3510.7083 176.605244,3510.66883 L180.924379,3508.98144 Z M201.163322,3483.04007 C201.567161,3482.88972 202,3483.18109 202,3483.60324 L202,3514.39687 C202,3514.81902 201.567161,3515.11009 201.163322,3514.96004 L190.883163,3511.13509 C190.703611,3511.0682 190.585143,3510.90006 190.585143,3510.71264 L190.585143,3498.67342 C190.585143,3498.56796 190.476856,3498.49504 190.375973,3498.53271 L187.609876,3499.56171 C187.539227,3499.58823 187.460866,3499.58823 187.390217,3499.56171 L184.61363,3498.52879 C184.493928,3498.4842 184.41495,3498.37211 184.41495,3498.24706 L184.41495,3495.27605 C184.41495,3495.06513 184.631215,3494.91929 184.833289,3494.99462 L187.445132,3495.96637 C187.48061,3495.97963 187.519482,3495.97963 187.554961,3495.96637 L193.56041,3493.73179 C193.762484,3493.65676 193.978749,3493.8023 193.978749,3494.01352 L193.978749,3508.84145 C193.978749,3508.90322 194.017004,3508.95866 194.075621,3508.98126 L198.394756,3510.66895 C198.496256,3510.70842 198.606394,3510.6355 198.606394,3510.52883 L198.606394,3487.46856 C198.606394,3487.3625 198.49749,3487.28958 198.396607,3487.32785 L191.005024,3490.12259 C190.802951,3490.19882 190.585143,3490.05328 190.585143,3489.84145 L190.585143,3487.28747 C190.585143,3487.09975 190.703611,3486.93191 190.883163,3486.86502 L201.163322,3483.04007 Z" transform="translate(-173 -3483)"/></svg>