<?xml version="1.0" encoding="utf-8"?>
<!-- Generator: Adobe Illustrator 16.0.4, SVG Export Plug-In . SVG Version: 6.00 Build 0)  -->
<!DOCTYPE svg PUBLIC "-//W3C//DTD SVG 1.1//EN" "http://www.w3.org/Graphics/SVG/1.1/DTD/svg11.dtd">
<svg version="1.1" id="Calque_1" xmlns="http://www.w3.org/2000/svg" xmlns:xlink="http://www.w3.org/1999/xlink" x="0px" y="0px"
	 width="141.651px" height="163.431px" viewBox="0 0 141.651 163.431" enable-background="new 0 0 141.651 163.431"
	 xml:space="preserve">
<g>
	<g>
		<g enable-background="new    ">
			<g>
				<g enable-background="new    ">
					<defs>
						<polygon id="SVGID_1_" enable-background="new    " points="71.171,81.916 70.94,163.431 0,122.474 0.231,40.958 						"/>
					</defs>
					<clipPath id="SVGID_2_">
						<use xlink:href="#SVGID_1_"  overflow="visible"/>
					</clipPath>
					<g clip-path="url(#SVGID_2_)">
						<g>
							<g>
								<g>
									<path fill="rgba(20, 60, 100, 0.7)" d="M14.659,114.129l0.136-47.945l21.933,12.663c0,0,20.501,13.349,20.435,36.638
										C57.099,138.132,38.51,127.9,36.87,126.953c-0.076-0.044-0.115-0.067-0.115-0.067L14.659,114.129 M70.473,82.307
										L0.919,42.149l-0.227,79.924l69.554,40.157L70.473,82.307"/>
								</g>
							</g>
						</g>
					</g>
				</g>
			</g>
			<g>
				<g enable-background="new    ">
					<defs>
						<polygon id="SVGID_3_" enable-background="new    " points="71.171,81.916 141.651,40.957 141.419,122.473 70.94,163.431 
													"/>
					</defs>
					<clipPath id="SVGID_4_">
						<use xlink:href="#SVGID_3_"  overflow="visible"/>
					</clipPath>
					<g clip-path="url(#SVGID_4_)">
						<g>
							<g>
								<g>
									<polyline fill="rgba(20, 60, 100, 0.7)" points="140.957,42.151 126.729,50.42 106.298,78.364 85.958,74.113 71.855,82.309 
										71.628,162.233 85.458,154.195 85.593,106.739 106.152,108.062 127.047,82.648 126.913,130.105 140.73,122.075 
										140.957,42.151 									"/>
								</g>
							</g>
						</g>
					</g>
				</g>
			</g>
			<g>
				<g enable-background="new    ">
					<defs>
						<polygon id="SVGID_5_" enable-background="new    " points="0.231,40.958 70.71,0 141.651,40.957 71.171,81.916 						"/>
					</defs>
					<clipPath id="SVGID_6_">
						<use xlink:href="#SVGID_5_"  overflow="visible"/>
					</clipPath>
					<g clip-path="url(#SVGID_6_)">
						<g>
							<g>
								<g>
									<path fill="rgba(20, 60, 100, 0.7)" d="M140.269,40.954L70.715,0.797L29.248,24.895L78.359,53.25c0,0,6.274,3.982-0.566,7.958
										c-6.424,3.733-12.161,0.704-12.997,0.221c-0.069-0.04-0.105-0.062-0.105-0.062L15.43,32.925l-13.818,8.03l69.555,40.157
										l41.454-24.09L63.572,28.704c0,0-6.261-3.99,0.567-7.958c6.415-3.728,12.116-0.73,12.977-0.233
										c0.073,0.042,0.111,0.067,0.111,0.067l49.211,28.412L140.269,40.954"/>
								</g>
							</g>
						</g>
					</g>
				</g>
			</g>
		</g>
	</g>
</g>
</svg>
